<svg xmlns="http://www.w3.org/2000/svg" version="1.1" xmlns:xlink="http://www.w3.org/1999/xlink" xmlns:svgjs="http://svgjs.dev/svgjs" width="1500" height="1500" viewBox="0 0 1500 1500"><rect width="1500" height="1500" fill="#000000"></rect><g transform="matrix(0.6666666666666666,0,0,0.6666666666666666,249.39393939393938,607.899616291709)"><svg viewBox="0 0 396 113" data-background-color="#ffffff" preserveAspectRatio="xMidYMid meet" height="428" width="1500" xmlns="http://www.w3.org/2000/svg" xmlns:xlink="http://www.w3.org/1999/xlink"><g id="tight-bounds" transform="matrix(1,0,0,1,0.2400000000000091,-0.22426392860901956)"><svg viewBox="0 0 395.52 113.44852785721804" height="113.44852785721804" width="395.52"><g><svg viewBox="0 0 681.6539776531199 195.5214408190824" height="113.44852785721804" width="395.52"><g><rect width="6.68782533312" height="195.5214408190824" x="261.93875615999997" y="0" fill="#ffffff" opacity="1" stroke-width="0" stroke="transparent" fill-opacity="1" class="rect-qz-0" data-fill-palette-color="primary" rx="1%" id="qz-0" data-palette-color="#085f63"></rect></g><g transform="matrix(1,0,0,1,286.1339776531199,0.48637174333103417)"><svg viewBox="0 0 395.52 194.54869733242032" height="194.54869733242032" width="395.52"><g id="textblocktransform"><svg viewBox="0 0 395.52 194.54869733242032" height="194.54869733242032" width="395.52" id="textblock"><g><svg viewBox="0 0 395.52 159.64213740458015" height="159.64213740458015" width="395.52"><g transform="matrix(1,0,0,1,0,0)"><svg width="395.52" viewBox="1.9 -39.05 209.6 81.6" height="159.64213740458015" data-palette-color="#085f63"><svg></svg><svg></svg><g class="wordmark-text-0" data-fill-palette-color="primary" id="text-0"><path d="M3.85 0v0c-0.533 0-0.99-0.193-1.37-0.58-0.387-0.38-0.58-0.837-0.58-1.37v0-35.15c0-0.567 0.183-1.033 0.55-1.4 0.367-0.367 0.833-0.55 1.4-0.55v0h23.45c0.567 0 1.033 0.173 1.4 0.52 0.367 0.353 0.55 0.813 0.55 1.38v0c0 0.5-0.183 0.933-0.55 1.3-0.367 0.367-0.833 0.55-1.4 0.55v0h-21.5v13.8h15.65c0.567 0 1.033 0.183 1.4 0.55 0.367 0.367 0.55 0.817 0.55 1.35v0c0 0.533-0.183 0.983-0.55 1.35-0.367 0.367-0.833 0.55-1.4 0.55v0h-15.65v15.75c0 0.533-0.183 0.99-0.55 1.37-0.367 0.387-0.833 0.58-1.4 0.58zM47.8 0.25v0c-2.567 0-4.867-0.61-6.9-1.83-2.033-1.213-3.64-2.87-4.82-4.97-1.187-2.1-1.78-4.467-1.78-7.1v0c0-2.667 0.61-5.05 1.83-7.15 1.213-2.1 2.87-3.76 4.97-4.98 2.1-1.213 4.467-1.82 7.1-1.82v0c2.633 0 4.993 0.607 7.08 1.82 2.08 1.22 3.73 2.88 4.95 4.98 1.213 2.1 1.837 4.483 1.87 7.15v0l-1.55 1.2c0 2.4-0.557 4.557-1.67 6.47-1.12 1.92-2.637 3.437-4.55 4.55-1.92 1.12-4.097 1.68-6.53 1.68zM48.2-3.25v0c1.933 0 3.66-0.45 5.18-1.35 1.513-0.9 2.713-2.143 3.6-3.73 0.88-1.58 1.32-3.353 1.32-5.32v0c0-2-0.44-3.783-1.32-5.35-0.887-1.567-2.087-2.81-3.6-3.73-1.52-0.913-3.247-1.37-5.18-1.37v0c-1.9 0-3.617 0.457-5.15 1.37-1.533 0.92-2.75 2.163-3.65 3.73-0.9 1.567-1.35 3.35-1.35 5.35v0c0 1.967 0.45 3.74 1.35 5.32 0.9 1.587 2.117 2.83 3.65 3.73 1.533 0.9 3.25 1.35 5.15 1.35zM60.15 0v0c-0.567 0-1.033-0.177-1.4-0.53-0.367-0.347-0.55-0.803-0.55-1.37v0-8.55l0.95-3.95 2.95 0.75v11.75c0 0.567-0.183 1.023-0.55 1.37-0.367 0.353-0.833 0.53-1.4 0.53zM93.05 0v0c-0.567 0-1.033-0.183-1.4-0.55-0.367-0.367-0.55-0.817-0.55-1.35v0-13c0-2.067-0.393-3.767-1.18-5.1-0.78-1.333-1.847-2.333-3.2-3-1.347-0.667-2.87-1-4.57-1v0c-1.633 0-3.11 0.317-4.43 0.95-1.313 0.633-2.353 1.5-3.12 2.6-0.767 1.1-1.15 2.35-1.15 3.75v0h-2.75c0.067-2.1 0.633-3.977 1.7-5.63 1.067-1.647 2.483-2.947 4.25-3.9 1.767-0.947 3.733-1.42 5.9-1.42v0c2.367 0 4.483 0.49 6.35 1.47 1.867 0.987 3.34 2.43 4.42 4.33 1.087 1.9 1.63 4.217 1.63 6.95v0 13c0 0.533-0.183 0.983-0.55 1.35-0.367 0.367-0.817 0.55-1.35 0.55zM71.55 0v0c-0.6 0-1.073-0.177-1.42-0.53-0.353-0.347-0.53-0.803-0.53-1.37v0-23.5c0-0.6 0.177-1.077 0.53-1.43 0.347-0.347 0.82-0.52 1.42-0.52v0c0.567 0 1.023 0.173 1.37 0.52 0.353 0.353 0.53 0.83 0.53 1.43v0 23.5c0 0.567-0.177 1.023-0.53 1.37-0.347 0.353-0.803 0.53-1.37 0.53zM115.9 0.25v0c-2.633 0-5-0.61-7.1-1.83-2.1-1.213-3.76-2.87-4.98-4.97-1.213-2.1-1.82-4.483-1.82-7.15v0c0-2.633 0.59-5 1.77-7.1 1.187-2.1 2.797-3.76 4.83-4.98 2.033-1.213 4.333-1.82 6.9-1.82v0c2.233 0 4.25 0.473 6.05 1.42 1.8 0.953 3.25 2.213 4.35 3.78v0-14.7c0-0.6 0.183-1.077 0.55-1.43 0.367-0.347 0.833-0.52 1.4-0.52v0c0.567 0 1.033 0.173 1.4 0.52 0.367 0.353 0.55 0.83 0.55 1.43v0 23.6c-0.067 2.6-0.71 4.94-1.93 7.02-1.213 2.087-2.863 3.73-4.95 4.93-2.08 1.2-4.42 1.8-7.02 1.8zM115.9-3.25v0c1.933 0 3.657-0.46 5.17-1.38 1.52-0.913 2.72-2.153 3.6-3.72 0.887-1.567 1.33-3.35 1.33-5.35v0c0-1.967-0.443-3.743-1.33-5.33-0.88-1.58-2.08-2.82-3.6-3.72-1.513-0.9-3.237-1.35-5.17-1.35v0c-1.9 0-3.617 0.45-5.15 1.35-1.533 0.9-2.75 2.14-3.65 3.72-0.9 1.587-1.35 3.363-1.35 5.33v0c0 2 0.45 3.783 1.35 5.35 0.9 1.567 2.117 2.807 3.65 3.72 1.533 0.92 3.25 1.38 5.15 1.38zM151.25 0.25v0c-2.667 0-5.05-0.6-7.15-1.8-2.1-1.2-3.75-2.85-4.95-4.95-1.2-2.1-1.8-4.483-1.8-7.15v0c0-2.7 0.6-5.1 1.8-7.2 1.2-2.1 2.85-3.75 4.95-4.95 2.1-1.2 4.483-1.8 7.15-1.8v0c2.667 0 5.043 0.6 7.13 1.8 2.08 1.2 3.72 2.85 4.92 4.95 1.2 2.1 1.817 4.5 1.85 7.2v0c0 2.667-0.61 5.05-1.83 7.15-1.213 2.1-2.86 3.75-4.94 4.95-2.087 1.2-4.463 1.8-7.13 1.8zM151.25-3.25v0c1.933 0 3.667-0.45 5.2-1.35 1.533-0.9 2.733-2.133 3.6-3.7 0.867-1.567 1.3-3.35 1.3-5.35v0c0-2-0.433-3.793-1.3-5.38-0.867-1.58-2.067-2.82-3.6-3.72-1.533-0.9-3.267-1.35-5.2-1.35v0c-1.933 0-3.667 0.45-5.2 1.35-1.533 0.9-2.743 2.14-3.63 3.72-0.88 1.587-1.32 3.38-1.32 5.38v0c0 2 0.44 3.783 1.32 5.35 0.887 1.567 2.097 2.8 3.63 3.7 1.533 0.9 3.267 1.35 5.2 1.35zM209.6 0v0c-0.567 0-1.033-0.177-1.4-0.53-0.367-0.347-0.55-0.803-0.55-1.37v0-14.4c0-2.367-0.617-4.243-1.85-5.63-1.233-1.38-2.817-2.07-4.75-2.07v0c-2.067 0-3.76 0.69-5.08 2.07-1.313 1.387-1.953 3.23-1.92 5.53v0h-3.45c0.033-2.233 0.517-4.2 1.45-5.9 0.933-1.7 2.217-3.017 3.85-3.95 1.633-0.933 3.483-1.4 5.55-1.4v0c1.967 0 3.707 0.467 5.22 1.4 1.52 0.933 2.703 2.25 3.55 3.95 0.853 1.7 1.28 3.7 1.28 6v0 14.4c0 0.567-0.177 1.023-0.53 1.37-0.347 0.353-0.803 0.53-1.37 0.53zM174.6 0v0c-0.6 0-1.077-0.177-1.43-0.53-0.347-0.347-0.52-0.803-0.52-1.37v0-23.5c0-0.567 0.173-1.033 0.52-1.4 0.353-0.367 0.83-0.55 1.43-0.55v0c0.567 0 1.023 0.183 1.37 0.55 0.353 0.367 0.53 0.833 0.53 1.4v0 23.5c0 0.567-0.177 1.023-0.53 1.37-0.347 0.353-0.803 0.53-1.37 0.53zM192.15 0v0c-0.567 0-1.033-0.177-1.4-0.53-0.367-0.347-0.55-0.803-0.55-1.37v0-14.4c0-2.367-0.617-4.243-1.85-5.63-1.233-1.38-2.817-2.07-4.75-2.07v0c-2.067 0-3.767 0.673-5.1 2.02-1.333 1.353-2 3.113-2 5.28v0h-2.75c0.067-2.133 0.54-4.027 1.42-5.68 0.887-1.647 2.097-2.937 3.63-3.87 1.533-0.933 3.267-1.4 5.2-1.4v0c1.967 0 3.707 0.467 5.22 1.4 1.52 0.933 2.703 2.25 3.55 3.95 0.853 1.7 1.28 3.7 1.28 6v0 14.4c0 0.567-0.177 1.023-0.53 1.37-0.347 0.353-0.803 0.53-1.37 0.53z" fill="#ffffff" fill-rule="nonzero" stroke="none" stroke-width="1" stroke-linecap="butt" stroke-linejoin="miter" stroke-miterlimit="10" stroke-dasharray="" stroke-dashoffset="0" font-family="none" font-weight="none" font-size="none" text-anchor="none" style="mix-blend-mode: normal" data-fill-palette-color="primary" opacity="1"></path><path transform="translate(0,42.3)" d="M3.85 0v0c-0.533 0-0.99-0.193-1.37-0.58-0.387-0.38-0.58-0.837-0.58-1.37v0-35.15c0-0.567 0.183-1.033 0.55-1.4 0.367-0.367 0.833-0.55 1.4-0.55v0h23.45c0.567 0 1.033 0.173 1.4 0.52 0.367 0.353 0.55 0.813 0.55 1.38v0c0 0.5-0.183 0.933-0.55 1.3-0.367 0.367-0.833 0.55-1.4 0.55v0h-21.5v13.8h15.65c0.567 0 1.033 0.183 1.4 0.55 0.367 0.367 0.55 0.817 0.55 1.35v0c0 0.533-0.183 0.983-0.55 1.35-0.367 0.367-0.833 0.55-1.4 0.55v0h-15.65v15.75c0 0.533-0.183 0.99-0.55 1.37-0.367 0.387-0.833 0.58-1.4 0.58zM48.2 0.25v0c-2.667 0-5.05-0.6-7.15-1.8-2.1-1.2-3.75-2.85-4.95-4.95-1.2-2.1-1.8-4.483-1.8-7.15v0c0-2.7 0.6-5.1 1.8-7.2 1.2-2.1 2.85-3.75 4.95-4.95 2.1-1.2 4.483-1.8 7.15-1.8v0c2.667 0 5.043 0.6 7.13 1.8 2.08 1.2 3.72 2.85 4.92 4.95 1.2 2.1 1.817 4.5 1.85 7.2v0c0 2.667-0.607 5.05-1.82 7.15-1.22 2.1-2.87 3.75-4.95 4.95-2.087 1.2-4.463 1.8-7.13 1.8zM48.2-3.25v0c1.933 0 3.667-0.45 5.2-1.35 1.533-0.9 2.733-2.133 3.6-3.7 0.867-1.567 1.3-3.35 1.3-5.35v0c0-2-0.433-3.793-1.3-5.38-0.867-1.58-2.067-2.82-3.6-3.72-1.533-0.9-3.267-1.35-5.2-1.35v0c-1.933 0-3.667 0.45-5.2 1.35-1.533 0.9-2.74 2.14-3.62 3.72-0.887 1.587-1.33 3.38-1.33 5.38v0c0 2 0.443 3.783 1.33 5.35 0.88 1.567 2.087 2.8 3.62 3.7 1.533 0.9 3.267 1.35 5.2 1.35zM73.4-16.85h-2.2c0.1-2.067 0.64-3.917 1.62-5.55 0.987-1.633 2.27-2.917 3.85-3.85 1.587-0.933 3.347-1.4 5.28-1.4v0c1.533 0 2.717 0.217 3.55 0.65 0.833 0.433 1.15 1.067 0.95 1.9v0c-0.133 0.5-0.36 0.833-0.68 1-0.313 0.167-0.693 0.233-1.14 0.2-0.453-0.033-0.963-0.067-1.53-0.1v0c-1.867-0.167-3.523 0.023-4.97 0.57-1.453 0.553-2.607 1.397-3.46 2.53-0.847 1.133-1.27 2.483-1.27 4.05zM71.5 0v0c-0.6 0-1.067-0.167-1.4-0.5-0.333-0.333-0.5-0.8-0.5-1.4v0-23.55c0-0.6 0.167-1.067 0.5-1.4 0.333-0.333 0.8-0.5 1.4-0.5v0c0.6 0 1.067 0.167 1.4 0.5 0.333 0.333 0.5 0.8 0.5 1.4v0 23.55c0 0.6-0.167 1.067-0.5 1.4-0.333 0.333-0.8 0.5-1.4 0.5zM104.25 0h-1.05c-1.767 0-3.343-0.417-4.73-1.25-1.38-0.833-2.47-1.973-3.27-3.42-0.8-1.453-1.2-3.113-1.2-4.98v0-24.45c0-0.567 0.177-1.033 0.53-1.4 0.347-0.367 0.803-0.55 1.37-0.55v0c0.567 0 1.033 0.183 1.4 0.55 0.367 0.367 0.55 0.833 0.55 1.4v0 24.45c0 1.7 0.5 3.09 1.5 4.17 1 1.087 2.283 1.63 3.85 1.63v0h1.35c0.533 0 0.967 0.183 1.3 0.55 0.333 0.367 0.5 0.833 0.5 1.4v0c0 0.567-0.2 1.023-0.6 1.37-0.4 0.353-0.9 0.53-1.5 0.53zM103.5-23h-12.75c-0.5 0-0.917-0.16-1.25-0.48-0.333-0.313-0.5-0.703-0.5-1.17v0c0-0.5 0.167-0.91 0.5-1.23 0.333-0.313 0.75-0.47 1.25-0.47v0h12.75c0.5 0 0.917 0.157 1.25 0.47 0.333 0.32 0.5 0.73 0.5 1.23v0c0 0.467-0.167 0.857-0.5 1.17-0.333 0.32-0.75 0.48-1.25 0.48zM116.4-16.85h-2.2c0.1-2.067 0.64-3.917 1.62-5.55 0.987-1.633 2.27-2.917 3.85-3.85 1.587-0.933 3.347-1.4 5.28-1.4v0c1.533 0 2.717 0.217 3.55 0.65 0.833 0.433 1.15 1.067 0.95 1.9v0c-0.133 0.5-0.357 0.833-0.67 1-0.32 0.167-0.703 0.233-1.15 0.2-0.453-0.033-0.963-0.067-1.53-0.1v0c-1.867-0.167-3.523 0.023-4.97 0.57-1.453 0.553-2.607 1.397-3.46 2.53-0.847 1.133-1.27 2.483-1.27 4.05zM114.5 0v0c-0.6 0-1.067-0.167-1.4-0.5-0.333-0.333-0.5-0.8-0.5-1.4v0-23.55c0-0.6 0.167-1.067 0.5-1.4 0.333-0.333 0.8-0.5 1.4-0.5v0c0.6 0 1.067 0.167 1.4 0.5 0.333 0.333 0.5 0.8 0.5 1.4v0 23.55c0 0.6-0.167 1.067-0.5 1.4-0.333 0.333-0.8 0.5-1.4 0.5zM145.9 0.25v0c-2.7 0-5.093-0.593-7.18-1.78-2.08-1.18-3.713-2.82-4.9-4.92-1.18-2.1-1.77-4.5-1.77-7.2v0c0-2.733 0.557-5.143 1.67-7.23 1.12-2.08 2.663-3.72 4.63-4.92 1.967-1.2 4.233-1.8 6.8-1.8v0c2.533 0 4.743 0.573 6.63 1.72 1.88 1.153 3.337 2.747 4.37 4.78 1.033 2.033 1.55 4.35 1.55 6.95v0c0 0.533-0.167 0.957-0.5 1.27-0.333 0.32-0.767 0.48-1.3 0.48v0h-21.25v-3.2h21.65l-2.15 1.55c0.033-1.933-0.317-3.667-1.05-5.2-0.733-1.533-1.777-2.733-3.13-3.6-1.347-0.867-2.953-1.3-4.82-1.3v0c-1.9 0-3.567 0.45-5 1.35-1.433 0.9-2.543 2.143-3.33 3.73-0.78 1.58-1.17 3.387-1.17 5.42v0c0 2.033 0.44 3.833 1.32 5.4 0.887 1.567 2.097 2.8 3.63 3.7 1.533 0.9 3.3 1.35 5.3 1.35v0c1.2 0 2.41-0.21 3.63-0.63 1.213-0.413 2.187-0.937 2.92-1.57v0c0.367-0.3 0.783-0.46 1.25-0.48 0.467-0.013 0.867 0.113 1.2 0.38v0c0.433 0.4 0.657 0.833 0.67 1.3 0.02 0.467-0.17 0.867-0.57 1.2v0c-1.1 0.933-2.5 1.707-4.2 2.32-1.7 0.62-3.333 0.93-4.9 0.93zM173.75 0.25v0c-1.967 0-3.917-0.333-5.85-1-1.933-0.667-3.5-1.667-4.7-3v0c-0.367-0.4-0.517-0.85-0.45-1.35 0.067-0.5 0.317-0.933 0.75-1.3v0c0.467-0.333 0.95-0.467 1.45-0.4 0.5 0.067 0.917 0.283 1.25 0.65v0c0.8 0.933 1.86 1.65 3.18 2.15 1.313 0.5 2.77 0.75 4.37 0.75v0c2.467 0 4.25-0.427 5.35-1.28 1.1-0.847 1.667-1.87 1.7-3.07v0c0-1.2-0.567-2.193-1.7-2.98-1.133-0.78-3-1.387-5.6-1.82v0c-3.367-0.533-5.833-1.467-7.4-2.8-1.567-1.333-2.35-2.917-2.35-4.75v0c0-1.7 0.45-3.117 1.35-4.25 0.9-1.133 2.1-1.983 3.6-2.55 1.5-0.567 3.15-0.85 4.95-0.85v0c2.233 0 4.157 0.383 5.77 1.15 1.62 0.767 2.93 1.8 3.93 3.1v0c0.333 0.433 0.467 0.883 0.4 1.35-0.067 0.467-0.333 0.85-0.8 1.15v0c-0.4 0.233-0.86 0.307-1.38 0.22-0.513-0.08-0.953-0.32-1.32-0.72v0c-0.833-0.967-1.8-1.677-2.9-2.13-1.1-0.447-2.367-0.67-3.8-0.67v0c-1.833 0-3.3 0.373-4.4 1.12-1.1 0.753-1.65 1.697-1.65 2.83v0c0 0.767 0.21 1.433 0.63 2 0.413 0.567 1.127 1.067 2.14 1.5 1.02 0.433 2.447 0.8 4.28 1.1v0c2.5 0.4 4.473 0.99 5.92 1.77 1.453 0.787 2.487 1.703 3.1 2.75 0.62 1.053 0.93 2.197 0.93 3.43v0c0 1.567-0.457 2.94-1.37 4.12-0.92 1.187-2.19 2.113-3.81 2.78-1.613 0.667-3.47 1-5.57 1zM200.7 0.25v0c-1.967 0-3.917-0.333-5.85-1-1.933-0.667-3.5-1.667-4.7-3v0c-0.367-0.4-0.517-0.85-0.45-1.35 0.067-0.5 0.317-0.933 0.75-1.3v0c0.467-0.333 0.95-0.467 1.45-0.4 0.5 0.067 0.917 0.283 1.25 0.65v0c0.8 0.933 1.857 1.65 3.17 2.15 1.32 0.5 2.78 0.75 4.38 0.75v0c2.467 0 4.25-0.427 5.35-1.28 1.1-0.847 1.667-1.87 1.7-3.07v0c0-1.2-0.567-2.193-1.7-2.98-1.133-0.78-3-1.387-5.6-1.82v0c-3.367-0.533-5.833-1.467-7.4-2.8-1.567-1.333-2.35-2.917-2.35-4.75v0c0-1.7 0.45-3.117 1.35-4.25 0.9-1.133 2.1-1.983 3.6-2.55 1.5-0.567 3.15-0.85 4.95-0.85v0c2.233 0 4.157 0.383 5.77 1.15 1.62 0.767 2.93 1.8 3.93 3.1v0c0.333 0.433 0.467 0.883 0.4 1.35-0.067 0.467-0.333 0.85-0.8 1.15v0c-0.4 0.233-0.86 0.307-1.38 0.22-0.513-0.08-0.953-0.32-1.32-0.72v0c-0.833-0.967-1.8-1.677-2.9-2.13-1.1-0.447-2.367-0.67-3.8-0.67v0c-1.833 0-3.3 0.373-4.4 1.12-1.1 0.753-1.65 1.697-1.65 2.83v0c0 0.767 0.207 1.433 0.62 2 0.42 0.567 1.137 1.067 2.15 1.5 1.02 0.433 2.447 0.8 4.28 1.1v0c2.5 0.4 4.473 0.99 5.92 1.77 1.453 0.787 2.487 1.703 3.1 2.75 0.62 1.053 0.93 2.197 0.93 3.43v0c0 1.567-0.46 2.94-1.38 4.12-0.913 1.187-2.18 2.113-3.8 2.78-1.613 0.667-3.47 1-5.57 1z" fill="#ffffff" fill-rule="nonzero" stroke="none" stroke-width="1" stroke-linecap="butt" stroke-linejoin="miter" stroke-miterlimit="10" stroke-dasharray="" stroke-dashoffset="0" font-family="none" font-weight="none" font-size="none" text-anchor="none" style="mix-blend-mode: normal" data-fill-palette-color="primary" opacity="1"></path></g></svg></g></svg></g><g transform="matrix(1,0,0,1,0,177.14953356458017)"><svg viewBox="0 0 232.20979200000002 17.399163767840154" height="17.399163767840154" width="232.20979200000002"><g transform="matrix(1,0,0,1,0,0)"><svg width="232.20979200000002" viewBox="3.9 -36.75 630.52 47.25" height="17.399163767840154" data-palette-color="#49beb7"><path d="M27.9 0L27.9-26.75 18.8 0 15.75 0 6.7-26.75 6.7 0 3.9 0 3.9-35 6.7-35 17.25-4.3 27.9-35 30.7-35 30.7 0 27.9 0ZM55.8 0Q50.4 0.55 48 0.55L48 0.55Q42.75 0.55 39.65-1.4 36.55-3.35 36.55-8.45L36.55-8.45 36.55-12.6Q36.55-17.55 40-19.25L40-19.25Q41.65-20.1 44.2-20.1L44.2-20.1Q46.55-20.1 48.95-19.33 51.35-18.55 53-17.3L53-17.3Q53-20.05 51.4-21.68 49.8-23.3 45.25-23.3L45.25-23.3 45.4-25.45Q50.2-25.45 52.47-23.93 54.75-22.4 55.27-20.3 55.8-18.2 55.8-14.9L55.8-14.9 55.8 0ZM53-15.15Q50.95-16.1 48.62-16.8 46.3-17.5 44.35-17.5L44.35-17.5Q39.3-17.5 39.3-12.45L39.3-12.45 39.3-8.1Q39.3-4.85 41.55-3.38 43.8-1.9 47.95-1.9L47.95-1.9Q50.1-1.9 53-2.3L53-2.3 53-15.15ZM75.95 0L66.35-15.85 63.75-13.6 63.75 0 60.95 0 60.95-35 63.75-35 63.75-16.75 73.75-26 75.75-24.05 68.35-17.6Q71.75-11.95 79.3 0L79.3 0 75.95 0ZM96.59-1.75Q94.79-0.6 92.49 0 90.19 0.6 87.89 0.6L87.89 0.6Q84.19 0.6 82.02-1.23 79.84-3.05 79.84-6.7L79.84-6.7 79.84-16.95Q79.84-21 82.37-23.25 84.89-25.5 89.04-25.5L89.04-25.5Q93.19-25.5 95.52-23.28 97.84-21.05 97.84-17.1L97.84-17.1 97.84-10.6 82.64-9.75 82.64-6.7Q82.64-4.3 84.19-3.1 85.74-1.9 88.24-1.9L88.24-1.9Q91.74-1.9 95.49-3.9L95.49-3.9 96.59-1.75ZM95.04-17.45Q95.04-20.55 93.09-21.83 91.14-23.1 88.99-23.1L88.99-23.1Q86.24-23.1 84.44-21.6 82.64-20.1 82.64-16.9L82.64-16.9 82.64-12.5 95.04-13.1 95.04-17.45ZM132.99-1.5Q134.29-2 135.16-3.33 136.04-4.65 136.04-7.6L136.04-7.6 136.04-14.7Q134.69-13.5 132.44-12.88 130.19-12.25 128.14-12.25L128.14-12.25Q122.84-12.25 119.76-14.88 116.69-17.5 116.69-22.65L116.69-22.65 116.69-35 119.49-35 119.49-22.15Q119.49-18.65 121.89-16.82 124.29-15 128.14-15L128.14-15Q131.09-15 133.29-16.25 135.49-17.5 136.04-20L136.04-20 136.04-35 138.89-35 138.89-7.8Q138.89-4.15 137.51-2.08 136.14 0 133.64 0.35L133.64 0.35 132.99-1.5ZM162.34-9.2Q162.34-5 160.04-2.25 157.74 0.5 153.09 0.5L153.09 0.5Q148.44 0.5 146.06-2.27 143.69-5.05 143.69-9.2L143.69-9.2 143.69-15.8Q143.69-20.55 146.11-23.08 148.54-25.6 153.09-25.6L153.09-25.6Q157.44-25.6 159.89-22.98 162.34-20.35 162.34-15.8L162.34-15.8 162.34-9.2ZM159.54-15.8Q159.54-19.55 157.81-21.3 156.09-23.05 153.09-23.05L153.09-23.05Q149.99-23.05 148.24-21.3 146.49-19.55 146.49-15.8L146.49-15.8 146.49-8.7Q146.49-5.7 148.26-3.85 150.04-2 153.09-2L153.09-2Q156.19-2 157.86-3.83 159.54-5.65 159.54-8.7L159.54-8.7 159.54-15.8ZM181.68 0L181.88-2.55Q180.68-1.05 178.86-0.25 177.03 0.55 175.18 0.55L175.18 0.55Q165.78 0.55 165.78-8.6L165.78-8.6 165.78-25.05 168.58-25.05 168.58-8.25Q168.58-5.05 170.36-3.5 172.13-1.95 175.18-1.95L175.18-1.95Q178.18-1.95 179.91-3.48 181.63-5 181.63-8.25L181.63-8.25 181.63-25.05 184.43-25.05 184.43 0 181.68 0ZM189.38 0L189.38-25.05 192.18-25.05 192.03-23.3Q194.38-25.5 198.18-25.5L198.18-25.5Q199.53-25.5 201.88-25.05L201.88-25.05 201.13-22.5Q199.53-23 197.78-23L197.78-23Q195.48-23 193.83-22.15 192.18-21.3 192.18-19.6L192.18-19.6 192.18 0 189.38 0ZM220.78 0L220.78-35 223.58-35 223.58-2.5 238.83-2.5 238.83 0 220.78 0ZM261.42-9.2Q261.42-5 259.12-2.25 256.82 0.5 252.17 0.5L252.17 0.5Q247.52 0.5 245.15-2.27 242.77-5.05 242.77-9.2L242.77-9.2 242.77-15.8Q242.77-20.55 245.2-23.08 247.62-25.6 252.17-25.6L252.17-25.6Q256.52-25.6 258.97-22.98 261.42-20.35 261.42-15.8L261.42-15.8 261.42-9.2ZM258.62-15.8Q258.62-19.55 256.9-21.3 255.17-23.05 252.17-23.05L252.17-23.05Q249.07-23.05 247.32-21.3 245.57-19.55 245.57-15.8L245.57-15.8 245.57-8.7Q245.57-5.7 247.35-3.85 249.12-2 252.17-2L252.17-2Q255.27-2 256.95-3.83 258.62-5.65 258.62-8.7L258.62-8.7 258.62-15.8ZM266.97-17.3Q266.97-22.55 271.22-24.5L271.22-24.5Q273.27-25.45 276.12-25.45L276.12-25.45Q277.97-25.45 279.7-25 281.42-24.55 282.62-23.7L282.62-23.7 282.62-35 285.42-35 285.42 0 282.67 0.25Q279.42 0.6 277.57 0.6L277.57 0.6Q275.72 0.6 274.1 0.25 272.47-0.1 270.87-0.9L270.87-0.9Q269.07-1.8 268.02-3.55 266.97-5.3 266.97-7.85L266.97-7.85 266.97-17.3ZM282.62-21.25Q281.27-22 279.52-22.48 277.77-22.95 276.07-22.95L276.07-22.95Q273.27-22.95 271.5-21.58 269.72-20.2 269.72-17.15L269.72-17.15 269.72-7.8Q269.72-1.95 277.77-1.95L277.77-1.95Q279.67-1.95 282.62-2.4L282.62-2.4 282.62-21.25ZM301.67 8.35Q304.97 7.1 304.97 3.15L304.97 3.15 304.97-3.05Q302.87 0.6 298.22 0.6L298.22 0.6Q293.82 0.6 291.37-1.8 288.92-4.2 288.92-8.8L288.92-8.8 288.92-16.25Q288.92-20.65 291.49-23.08 294.07-25.5 298.42-25.5L298.42-25.5Q303.07-25.5 305.17-22.15L305.17-22.15 304.97-25.05 307.77-25.05 307.77 3.2Q307.77 6.2 306.52 7.9 305.27 9.6 302.42 10.5L302.42 10.5 301.67 8.35ZM304.97-16.8Q304.97-19.9 302.97-21.43 300.97-22.95 298.22-22.95L298.22-22.95Q295.57-22.95 293.64-21.33 291.72-19.7 291.72-16L291.72-16 291.72-8.35Q291.72-5.2 293.49-3.6 295.27-2 298.22-2L298.22-2Q301.02-2 302.99-3.73 304.97-5.45 304.97-8.65L304.97-8.65 304.97-16.8ZM313.17-32.15Q312.52-32.15 311.99-32.68 311.47-33.2 311.47-33.85L311.47-33.85Q311.47-34.5 311.97-35 312.47-35.5 313.17-35.5L313.17-35.5Q313.87-35.5 314.34-35.02 314.82-34.55 314.82-33.85L314.82-33.85Q314.82-33.15 314.32-32.65 313.82-32.15 313.17-32.15L313.17-32.15ZM311.72 0L311.72-25.05 314.52-25.05 314.52 0 311.72 0ZM337.71 0L337.71-17.15Q337.71-20.2 335.94-21.58 334.16-22.95 331.36-22.95L331.36-22.95Q329.66-22.95 327.91-22.48 326.16-22 324.81-21.25L324.81-21.25 324.81 0 322.01 0 322.01-25.05 324.81-25.05 324.61-23.35Q325.81-24.4 327.66-24.93 329.51-25.45 331.51-25.45L331.51-25.45Q334.26-25.45 336.21-24.55L336.21-24.55Q338.21-23.65 339.34-21.85 340.46-20.05 340.46-17.3L340.46-17.3 340.46 0 337.71 0ZM358.41 8.35Q361.71 7.1 361.71 3.15L361.71 3.15 361.71-3.05Q359.61 0.6 354.96 0.6L354.96 0.6Q350.56 0.6 348.11-1.8 345.66-4.2 345.66-8.8L345.66-8.8 345.66-16.25Q345.66-20.65 348.24-23.08 350.81-25.5 355.16-25.5L355.16-25.5Q359.81-25.5 361.91-22.15L361.91-22.15 361.71-25.05 364.51-25.05 364.51 3.2Q364.51 6.2 363.26 7.9 362.01 9.6 359.16 10.5L359.16 10.5 358.41 8.35ZM361.71-16.8Q361.71-19.9 359.71-21.43 357.71-22.95 354.96-22.95L354.96-22.95Q352.31-22.95 350.39-21.33 348.46-19.7 348.46-16L348.46-16 348.46-8.35Q348.46-5.2 350.24-3.6 352.01-2 354.96-2L354.96-2Q357.76-2 359.74-3.73 361.71-5.45 361.71-8.65L361.71-8.65 361.71-16.8ZM384 0L384-35 386.81-35 386.81-2.5 402.06-2.5 402.06 0 384 0ZM407.7-32.15Q407.05-32.15 406.53-32.68 406-33.2 406-33.85L406-33.85Q406-34.5 406.5-35 407-35.5 407.7-35.5L407.7-35.5Q408.4-35.5 408.88-35.02 409.35-34.55 409.35-33.85L409.35-33.85Q409.35-33.15 408.85-32.65 408.35-32.15 407.7-32.15L407.7-32.15ZM406.25 0L406.25-25.05 409.05-25.05 409.05 0 406.25 0ZM431.7 0L422.1-15.85 419.5-13.6 419.5 0 416.7 0 416.7-35 419.5-35 419.5-16.75 429.5-26 431.5-24.05 424.1-17.6Q427.5-11.95 435.05 0L435.05 0 431.7 0ZM452.35-1.75Q450.55-0.6 448.25 0 445.95 0.6 443.65 0.6L443.65 0.6Q439.95 0.6 437.77-1.23 435.6-3.05 435.6-6.7L435.6-6.7 435.6-16.95Q435.6-21 438.12-23.25 440.65-25.5 444.8-25.5L444.8-25.5Q448.95-25.5 451.27-23.28 453.6-21.05 453.6-17.1L453.6-17.1 453.6-10.6 438.4-9.75 438.4-6.7Q438.4-4.3 439.95-3.1 441.5-1.9 444-1.9L444-1.9Q447.5-1.9 451.25-3.9L451.25-3.9 452.35-1.75ZM450.8-17.45Q450.8-20.55 448.85-21.83 446.9-23.1 444.75-23.1L444.75-23.1Q442-23.1 440.2-21.6 438.4-20.1 438.4-16.9L438.4-16.9 438.4-12.5 450.8-13.1 450.8-17.45ZM475.39-25.6L474.69-35Q474.69-35.85 475.19-36.3 475.69-36.75 476.39-36.75L476.39-36.75Q477.09-36.75 477.59-36.3 478.09-35.85 478.09-35L478.09-35 477.39-25.6 475.39-25.6ZM482.64-25.6L481.94-35Q481.94-35.85 482.44-36.3 482.94-36.75 483.64-36.75L483.64-36.75Q484.34-36.75 484.84-36.3 485.34-35.85 485.34-35L485.34-35 484.64-25.6 482.64-25.6ZM497.39 0L497.39-32.45 494.04-32.55 494.04-35 500.19-35 500.19 0 497.39 0ZM508.64-8.9Q508.79-7.2 509.91-5.65 511.04-4.1 513.01-3.13 514.99-2.15 517.54-2.15L517.54-2.15Q521.39-2.15 523.96-3.88 526.54-5.6 526.54-9.35L526.54-9.35Q526.54-11.55 525.29-13.03 524.04-14.5 522.19-15.38 520.34-16.25 517.14-17.4L517.14-17.4Q513.69-18.6 511.61-19.63 509.54-20.65 508.11-22.4 506.69-24.15 506.69-26.9L506.69-26.9Q506.69-29.1 507.94-31.08 509.19-33.05 511.71-34.27 514.24-35.5 517.94-35.5L517.94-35.5Q520.39-35.5 521.99-35.15 523.59-34.8 525.24-34L525.24-34 524.39-31.35Q521.54-32.8 518.04-32.8L518.04-32.8Q514.19-32.8 511.89-31.2 509.59-29.6 509.59-26.75L509.59-26.75Q509.59-24.95 510.74-23.73 511.89-22.5 513.56-21.75 515.24-21 518.24-19.95L518.24-19.95Q521.89-18.7 524.14-17.63 526.39-16.55 527.96-14.58 529.54-12.6 529.54-9.6L529.54-9.6Q529.54-5 526.61-2.23 523.69 0.55 517.59 0.55L517.59 0.55Q513.89 0.55 511.26-0.83 508.64-2.2 507.26-4.38 505.89-6.55 505.79-8.9L505.79-8.9 508.64-8.9ZM535.88 0L535.88-35 552.58-35 552.58-32.4 538.68-32.4 538.68-20.65 548.23-20.65 547.28-17.9 538.68-17.9 538.68-2.5 552.48-2.5 552.48 0 535.88 0ZM575.68 0L564.38-17.25 561.98-13.45 561.98 0 559.18 0 559.18-35.05 561.98-35.05 561.98-18.35 573.18-35.05 576.43-35.05 566.18-19.9 579.03 0 575.68 0ZM601.83 0L597.83-12.25 586.43-12.25 582.53 0 579.58 0 590.78-35 593.43-35 604.83 0 601.83 0ZM592.08-30.65L587.23-15 597.08-15 592.08-30.65ZM611.98 0L611.98-32.45 608.63-32.55 608.63-35 614.78-35 614.78 0 611.98 0ZM624.47-25.6L623.77-35Q623.77-35.85 624.27-36.3 624.77-36.75 625.47-36.75L625.47-36.75Q626.17-36.75 626.67-36.3 627.17-35.85 627.17-35L627.17-35 626.47-25.6 624.47-25.6ZM631.72-25.6L631.02-35Q631.02-35.85 631.52-36.3 632.02-36.75 632.72-36.75L632.72-36.75Q633.42-36.75 633.92-36.3 634.42-35.85 634.42-35L634.42-35 633.72-25.6 631.72-25.6Z" opacity="1" transform="matrix(1,0,0,1,0,0)" fill="#ffffff" class="slogan-text-1" data-fill-palette-color="secondary" id="text-1"></path></svg></g></svg></g></svg></g></svg></g><g transform="matrix(1,0,0,1,0,20.143042935856982)"><svg viewBox="0 0 244.43135999999998 155.23535494736842" height="155.23535494736842" width="244.43135999999998"><g><svg xmlns="http://www.w3.org/2000/svg" xmlns:xlink="http://www.w3.org/1999/xlink" xml:space="preserve" version="1.1" style="shape-rendering:geometricPrecision;text-rendering:geometricPrecision;image-rendering:optimizeQuality;" viewBox="24 76 285 181" x="0" y="0" fill-rule="evenodd" clip-rule="evenodd" height="155.23535494736842" width="244.43135999999998" class="icon-icon-0" data-fill-palette-color="accent" id="icon-0"><g fill="#49beb7" data-fill-palette-color="accent"><path class="" d="M24 135l74 0 0 122-74 0 0-122z m122 122l41 0 0-57-41 0 0 57z m-34-181l108 0 0 181-20 0 0-71-69 0 0 71-20 0 0-181z m16 87l77 0 0 11-77 0 0-11z m0-25l77 0 0 11-77 0 0-11z m0-25l77 0 0 11-77 0 0-11z m0-25l77 0 0 11-77 0 0-11z m107 46l74 0 0 122-74 0 0-122z m16 93l42 0 0 11-42 0 0-11z m0-25l42 0 0 11-42 0 0-11z m0-25l42 0 0 11-42 0 0-11z m0-25l42 0 0 11-42 0 0-11z m-211 75l42 0 0 11-42 0 0-11z m0-25l42 0 0 11-42 0 0-11z m0-25l42 0 0 11-42 0 0-11z m0-25l42 0 0 11-42 0 0-11z" fill="#ffffff" data-fill-palette-color="accent"></path></g></svg></g></svg></g></svg></g><defs></defs></svg><rect width="395.52" height="113.44852785721804" fill="none" stroke="none" visibility="hidden"></rect></g></svg></g></svg>